<?xml version="1.0" encoding="UTF-8"?>
<svg id="katman_1" xmlns="http://www.w3.org/2000/svg" version="1.1" viewBox="0 0 120.5 72">
  <!-- Generator: Adobe Illustrator 29.8.1, SVG Export Plug-In . SVG Version: 2.1.1 Build 2)  -->
  <defs>
    <style>
      .st0 {
        fill: #495057;
      }

      .st0, .st1 {
        fill-rule: evenodd;
      }

      .st1 {
        fill: #1e64ff;
      }
    </style>
  </defs>
  <path id="Combined-Shape" class="st1" d="M11.5,10.1c1.5-.8,3.3-.2,4.1,1.3h0l6.5,12.2,6.5-12.2c.8-1.4,2.6-2,4.1-1.3,1.5.8,2.1,2.5,1.3,4h0l-13.7,26c-.5,1-1.5,1.5-2.5,1.6-.5,0-1,0-1.5-.3-1.5-.8-2.1-2.5-1.3-4h0l3.9-7.4-8.4-15.9c-.8-1.4-.2-3.2,1.3-4h-.3ZM83.8,9.5c3.3,0,6.3,1.1,8.6,3.4,1.2,1.2,1.2,3,0,4.2-1.2,1.2-3.1,1.2-4.3,0-1.2-1.1-2.7-1.8-4.4-1.8s-3.2.6-4.4,1.8c-1.2,1.1-1.8,2.7-1.8,4.3s.6,3.1,1.8,4.3c1.2,1.1,2.7,1.8,4.4,1.8s3.2-.6,4.4-1.8c1.2-1.2,3.1-1.2,4.3,0,1.2,1.2,1.2,3,0,4.2-2.3,2.3-5.4,3.5-8.6,3.5s-6.3-1.2-8.6-3.5c-2.3-2.3-3.6-5.3-3.6-8.4s1.3-6.2,3.6-8.5c2.3-2.3,5.4-3.5,8.6-3.5h0ZM108.2,9.4c6.7,0,12.2,5.4,12.2,12s-5.5,11.9-12.2,11.9-12.2-5.4-12.2-11.9,5.5-12,12.2-12ZM3.3,9.7c1.7,0,3,1.3,3,3h0v17.3c0,1.6-1.3,3-3,3s-3-1.3-3-3h0V12.7c0-1.6,1.3-3,3-3ZM54.2,9.7c.7,0,1.4.2,2,.7,1.3,1,1.4,2.9.4,4.2h0l-10.6,12.4h8.3c1.7,0,3,1.3,3,3s-1.3,3-3,3h-14.8c-.7,0-1.4-.2-1.9-.7-1.3-1-1.4-2.9-.4-4.2h0l10.6-12.4h-7c-1.7,0-3-1.3-3-3s1.3-3,3-3h13.4ZM64.7,9.7c1.7,0,3,1.3,3,3h0v17.3c0,1.6-1.3,3-3,3s-3-1.3-3-3h0V12.7c0-1.6,1.3-3,3-3ZM108.2,15.3c-3.4,0-6.2,2.7-6.2,6s2.8,6,6.2,6,6.2-2.7,6.2-6-2.8-6-6.2-6ZM3.3.3c1.8,0,3.3,1.5,3.3,3.3s-1.5,3.3-3.3,3.3S0,5.4,0,3.6,1.5.3,3.3.3ZM64.7.3c1.8,0,3.3,1.5,3.3,3.3s-1.5,3.3-3.3,3.3-3.3-1.5-3.3-3.3,1.5-3.3,3.3-3.3Z"/>
  <path id="Combined-Shape1" class="st0" d="M45.8,50.7c5.1,0,10.1,4.3,10.1,10.5s-5,10.5-10.1,10.5-10.1-4.3-10.1-10.5,5-10.5,10.1-10.5ZM71.2,50.5c.8,0,1.6.7,1.6,1.6v18c0,.9-.7,1.6-1.6,1.6s-1.5-.7-1.5-1.6v-1.6c-.2,1.3-2,3.2-4.8,3.2s-7.1-2.5-7.1-7.8,3.9-7.8,7.1-7.8,4,1.1,4.8,2.8v-6.8c0-.8.7-1.6,1.5-1.6ZM1.3,56.1c.6,0,1.2.6,1.2,1.2v13c0,.7-.6,1.3-1.2,1.3s-1.2-.6-1.2-1.3v-13c0-.7.6-1.2,1.2-1.2ZM6.9,50.5c.6,0,1.2.6,1.2,1.2v18.6c0,.6-.6,1.2-1.2,1.2s-1.2-.6-1.2-1.2v-18.6c0-.6.6-1.2,1.2-1.2ZM18.2,56c3.3,0,7.3,2.6,7.3,7.4s-.6,1.4-1.5,1.4h-10.7c.3,3.2,2.8,4.8,5.3,4.8s2.4-.4,3.4-1.1c.4-.3.7-.4,1-.4.6,0,.9.4.9.9s-.1.6-.6,1.1c-1.2,1-2.9,1.6-4.7,1.6-3.7,0-7.7-2.5-7.7-7.7s4.1-7.8,7.5-7.8l-.2-.2ZM83,56c3.3,0,7.3,2.6,7.3,7.3s-.7,1.7-1.9,1.7h-9.8c.3,2.7,2.4,4,4.8,4s2-.3,2.9-.8c.5-.3.8-.5,1.2-.5.7,0,1.1.5,1.1,1.1s0,.8-.8,1.3c-1.1.9-2.7,1.4-4.5,1.4-3.8,0-7.8-2.4-7.8-7.7s4.2-7.8,7.5-7.8ZM65.4,58.7c-2.1,0-4.5,1.7-4.5,5.1s2.4,5.2,4.5,5.2,4.4-1.5,4.4-5.2-2.4-5.1-4.4-5.1ZM45.8,53.7c-3.6,0-6.8,3-6.8,7.5s3.3,7.4,6.8,7.4,6.8-3,6.8-7.4-3.3-7.5-6.8-7.5ZM18.2,58.2c-2.2,0-4.7,1.5-5,4.7h9.9c-.3-3.3-2.8-4.7-5-4.7h.1ZM83,58.7c-1.9,0-4.1,1.2-4.4,4h8.7c-.3-2.8-2.4-4-4.3-4ZM1.3,50.2c.6,0,1.2.6,1.2,1.2s-.6,1.2-1.2,1.2-1.3-.6-1.3-1.2.6-1.2,1.3-1.2ZM49.4,45.4c.9,0,1.7.8,1.7,1.7s-.8,1.7-1.7,1.7-1.7-.8-1.7-1.7.8-1.7,1.7-1.7ZM42.2,45.4c.9,0,1.7.8,1.7,1.7s-.8,1.7-1.7,1.7-1.7-.8-1.7-1.7.8-1.7,1.7-1.7Z"/>
</svg>